<svg xmlns="http://www.w3.org/2000/svg" viewBox="0 0 1000 1000"><defs><style>.cls-1{fill:#fff;}.cls-2{fill:#312f30;}.cls-3{fill:#09caf5;}</style></defs><g id="Layer_2" data-name="Layer 2"><g id="Layer_1-2" data-name="Layer 1"><rect class="cls-1" width="1000" height="1000"/><path class="cls-2" d="M836.12,701.05H834l-107.79,0h-53.9v0c-.46-3.32-.92-7-1.38-10.22-1.48-10.72-3-21.06-4-31.44-.29-3.45-.54-6.9-.71-10.35,0-1.26-.13-2.48-.13-3.74-.08-3.19-.08-6.43,0-9.62.47-14.17,3-28.13,8.87-41.54,11.27-25.56,32.33-37.75,54.15-34.09.84.12,1.72.29,2.57.5,1.13.25,2.27.55,3.4.88,1.56.51,3.11,1.05,4.67,1.68.21.09.42.22.63.3.63.25,1.26.55,1.89.84a61,61,0,0,1,11.18,6.81c1.52,1.14,3,2.35,4.46,3.66,12.27,10.93,22.74,24.38,32.16,38,18,25.9,30.77,54.74,42.5,83.91a10.39,10.39,0,0,0,2,3.49,4.4,4.4,0,0,0,.63.59C835.49,700.88,835.87,700.92,836.12,701.05Z"/><path class="cls-3" d="M892.12,700.45l.12-.13a18.67,18.67,0,0,0,4.46-1.84,19.52,19.52,0,0,0,2.19-1.64,10.4,10.4,0,0,0,1.72-2.06c.25-.34.42-.68.63-1,1.56-3.07,1.64-6.94.08-11.35a28.2,28.2,0,0,0-2.43-5c-13.46-22.49-27.25-44.77-41.16-66.93-23.5-37.37-47.67-74.32-73.44-110.14-12-16.73-23.21-34.14-36.29-50.07-4.49-5.47-9.16-10.68-14.12-15.68-1.64-1.68-3.32-3.32-5-4.92a1.47,1.47,0,0,0-.17-.13,184.54,184.54,0,0,0-15.93-13.62c-1.85-1.43-3.7-2.81-5.6-4.12a177.44,177.44,0,0,0-23.92-14.33c-2.1-1-4.2-2-6.35-2.95-3.23-1.43-6.55-2.73-9.87-3.91s-6.69-2.35-10.09-3.32c-20.39-5.84-42.51-7.14-63.11-1.85-22.45,5.8-40.14,17-43.63,42.17-.51,3.53-.93,7.19-1.14,10.8a70.94,70.94,0,0,0,.51,15.52c4,25.09,9,50.07,14,75,3.57,17.69,7.65,35.27,8.36,53.26a128.2,128.2,0,0,1-.33,16c-1.39,15.93-8.33,28.37-21.61,37.58-20.69,14.34-43.93,20.77-68.65,20.94a206.22,206.22,0,0,1-51.29-5.85.19.19,0,0,1-.09,0c-4.24-1.09-8.4-2.27-12.52-3.61-2.74-.89-5.43-1.85-8.12-2.86-3-1.18-6.05-2.4-9-3.74a189.85,189.85,0,0,1-38.21-22.83c-3.78-2.9-7.44-6-11.1-9.12L347,605c-2.32-2.19-4.63-4.42-6.9-6.69a258.79,258.79,0,0,1-19.51-22.19c-3.11-4-6-8.08-9.33-11.73a54.58,54.58,0,0,0-6.94-6.48A41.08,41.08,0,0,0,296,552.6a35.74,35.74,0,0,0-4.62-1.77c-11.1-3.15-22.37.72-33.22,12.15a182.1,182.1,0,0,0-25.77,35.69c-16.22,28.72-27.11,59.66-36.53,91.14-.84,2.78-1.68,5.55-2.48,8.33l-.34.92-.75,2.19H119c-.92,0-1.89,0-2.86,0-11.52-.3-22-2.86-27.24-14.55-5.17-11.48-1-21.06,6.35-30.22,29-36.08,58.48-71.77,94.29-101.32,14.59-12,30.73-22.45,47-32.2,8.16-4.88,18-7.57,27.5-9.42,24.05-4.71,43.55,3.61,58.22,23.12,5,6.64,9.38,13.79,14.34,20.47A70.25,70.25,0,0,0,347,568.7c9.46,7.86,19.42,8.53,28.54.42,7.74-6.85,15.35-14.76,20.22-23.71,13.2-24.22,25-49.19,37.21-73.95,16.31-33,31.95-66.47,48.89-99.17a175.19,175.19,0,0,1,36.62-48.18c27-25.1,58.31-32.12,92.44-18.58a212.15,212.15,0,0,1,47.64,26.78c38.8,28.75,69.7,65.49,99.29,103.25,55.92,71.38,104.26,147.85,150.68,225.58C919.49,679.56,911.29,697.05,892.12,700.45Z"/></g></g></svg>