<svg xmlns="http://www.w3.org/2000/svg" viewBox="0 0 225.26 109.65"><defs><style>.cls-1{fill:#fff;}</style></defs><g id="Layer_2" data-name="Layer 2"><g id="Layer_1-2" data-name="Layer 1"><path class="cls-1" d="M219.45,109.43l0,0a4.8,4.8,0,0,0,1.22-.5,5.39,5.39,0,0,0,.59-.45,2.8,2.8,0,0,0,.47-.56,2,2,0,0,0,.17-.27,3.86,3.86,0,0,0,0-3.09,7.56,7.56,0,0,0-.67-1.38c-3.66-6.13-7.42-12.2-11.21-18.23-6.4-10.18-13-20.25-20-30-3.27-4.55-6.32-9.29-9.88-13.64-1.23-1.48-2.5-2.9-3.85-4.27-.45-.46-.9-.9-1.36-1.34l0,0c-.34-.33-.7-.65-1.05-1-.7-.63-1.43-1.25-2.17-1.86-.36-.3-.74-.6-1.12-.88s-1-.77-1.52-1.12a47.68,47.68,0,0,0-6.52-3.91c-.57-.27-1.14-.54-1.73-.8-.88-.39-1.78-.75-2.69-1.07s-1.82-.64-2.75-.9a33,33,0,0,0-17.19-.5c-6.11,1.58-10.93,4.62-11.88,11.48-.14,1-.26,2-.31,2.95a19.75,19.75,0,0,0,.13,4.22c1.1,6.84,2.47,13.64,3.83,20.43,1,4.82,2.08,9.61,2.28,14.51a35.54,35.54,0,0,1-.09,4.37,13.16,13.16,0,0,1-5.89,10.23,32.51,32.51,0,0,1-18.7,5.71,56.21,56.21,0,0,1-14-1.6h0c-1.15-.29-2.29-.62-3.41-1-.74-.24-1.48-.51-2.21-.78s-1.65-.65-2.46-1A51.3,51.3,0,0,1,75.07,86.9c-1-.79-2-1.62-3-2.48l-1.1-1c-.63-.6-1.26-1.2-1.88-1.82a69.67,69.67,0,0,1-5.32-6c-.84-1.07-1.62-2.2-2.54-3.19a15.42,15.42,0,0,0-1.89-1.77,11.49,11.49,0,0,0-2.27-1.44,10.82,10.82,0,0,0-1.26-.48c-3-.86-6.09.19-9,3.31a49.3,49.3,0,0,0-7,9.72c-4.42,7.82-7.39,16.25-9.95,24.83-.23.76-.46,1.51-.68,2.27l-.09.25-.21.6h-20l-.78,0c-3.14-.08-6-.77-7.42-4s-.29-5.74,1.73-8.23c7.9-9.83,15.93-19.55,25.69-27.6a103.07,103.07,0,0,1,12.8-8.77,23.34,23.34,0,0,1,7.49-2.57c6.55-1.28,11.86,1,15.86,6.3,1.36,1.81,2.55,3.76,3.91,5.58A19,19,0,0,0,71,73.54c2.57,2.14,5.29,2.32,7.77.11a25.12,25.12,0,0,0,5.51-6.46c3.6-6.59,6.82-13.4,10.14-20.14,4.44-9,8.7-18.11,13.32-27a47.7,47.7,0,0,1,10-13.12C125,.07,133.56-1.84,142.85,1.85a57.73,57.73,0,0,1,13,7.29c10.57,7.83,19,17.84,27,28.13,15.23,19.44,28.4,40.28,41.05,61.45C226.9,103.74,224.67,108.5,219.45,109.43Z"/><path class="cls-1" d="M204.14,109.59H159.57c-.12-.9-.25-1.89-.37-2.77-.4-2.92-.83-5.74-1.08-8.57-.08-.94-.15-1.88-.19-2.81,0-.35,0-.68,0-1,0-.87,0-1.76,0-2.63q0-.85.09-1.71c0-.41.07-.81.12-1.2s.09-.74.15-1.12q0-.3.09-.6c.06-.37.12-.73.19-1.09,0,0,0-.08,0-.13.05-.31.12-.62.2-.93l.16-.61c.11-.38.21-.77.34-1.15a25.73,25.73,0,0,1,1-2.77c3.07-7,8.8-10.29,14.75-9.29.23,0,.47.08.7.14s.62.15.92.24.85.29,1.28.46l.17.08.51.23a16.46,16.46,0,0,1,3.05,1.85c.41.31.81.64,1.21,1a57.51,57.51,0,0,1,8.76,10.34c4.91,7,8.39,14.91,11.58,22.86a2.83,2.83,0,0,0,.55.95c.05.06.12.11.17.16A.58.58,0,0,0,204.14,109.59Z"/></g></g></svg>