<svg xmlns="http://www.w3.org/2000/svg" viewBox="0 0 152.79 74.37"><defs><style>.cls-1{fill:#09caf5;}.cls-2{fill:#312f30;}</style></defs><g id="Layer_2" data-name="Layer 2"><g id="Layer_1-2" data-name="Layer 1"><path class="cls-1" d="M148.85,74.23l0,0a3.13,3.13,0,0,0,.83-.34,2.46,2.46,0,0,0,.4-.3,1.62,1.62,0,0,0,.32-.38l.12-.19a2.66,2.66,0,0,0,0-2.1,5.24,5.24,0,0,0-.45-.93c-2.48-4.15-5-8.27-7.6-12.37-4.35-6.9-8.81-13.73-13.57-20.35-2.23-3.09-4.29-6.31-6.71-9.25-.83-1-1.69-2-2.61-2.9-.3-.31-.61-.61-.92-.91l0,0-.72-.66c-.47-.43-1-.85-1.47-1.26-.24-.2-.5-.4-.76-.6s-.68-.52-1-.76a33.35,33.35,0,0,0-4.42-2.65l-1.17-.54c-.6-.26-1.22-.51-1.83-.72s-1.23-.44-1.86-.62A22.4,22.4,0,0,0,93.74,16c-4.15,1.07-7.42,3.14-8.07,7.79-.09.66-.17,1.33-.21,2a13.07,13.07,0,0,0,.1,2.87c.74,4.63,1.67,9.25,2.59,13.85a62.29,62.29,0,0,1,1.55,9.85,24.46,24.46,0,0,1-.06,3,8.94,8.94,0,0,1-4,6.94A22,22,0,0,1,73,66.14a38.21,38.21,0,0,1-9.48-1.08h0c-.78-.2-1.55-.42-2.31-.67-.51-.16-1-.34-1.5-.52s-1.12-.45-1.67-.7A35,35,0,0,1,50.92,59c-.7-.54-1.38-1.11-2.05-1.69l-.75-.68c-.42-.4-.85-.81-1.27-1.23a48,48,0,0,1-3.61-4.1c-.57-.73-1.1-1.49-1.72-2.17a10.88,10.88,0,0,0-1.28-1.2,7.42,7.42,0,0,0-1.54-1,5.3,5.3,0,0,0-.85-.33c-2.06-.58-4.14.13-6.14,2.24A33.78,33.78,0,0,0,27,55.42,80.75,80.75,0,0,0,20.2,72.26c-.16.51-.31,1-.46,1.54l-.06.17-.14.4H5.46c-2.13-.06-4.06-.53-5-2.69s-.2-3.89,1.17-5.59C7,59.43,12.41,52.83,19,47.37a71,71,0,0,1,8.69-5.95,15.93,15.93,0,0,1,5.08-1.74c4.44-.87,8.05.67,10.76,4.27.92,1.23,1.73,2.55,2.65,3.79a12.71,12.71,0,0,0,1.93,2.14c1.75,1.45,3.59,1.58,5.28.08a17.3,17.3,0,0,0,3.73-4.38c2.44-4.48,4.62-9.09,6.88-13.67,3-6.1,5.9-12.28,9-18.32a32.41,32.41,0,0,1,6.77-8.9c5-4.64,10.77-5.94,17.08-3.44a39.3,39.3,0,0,1,8.8,5c7.17,5.31,12.88,12.1,18.35,19.08C134.38,38.47,143.31,52.6,151.89,67,153.91,70.36,152.39,73.6,148.85,74.23Z"/><path class="cls-2" d="M138.47,74.33H108.24c-.09-.61-.17-1.28-.26-1.88-.27-2-.56-3.89-.73-5.81,0-.64-.1-1.27-.13-1.91,0-.23,0-.46,0-.69,0-.59,0-1.19,0-1.78,0-.39,0-.78.06-1.16s0-.55.08-.81.06-.51.1-.76,0-.28.06-.42.09-.48.13-.73l0-.09c0-.21.08-.42.14-.63s.07-.28.11-.42a7.42,7.42,0,0,1,.22-.77,18.57,18.57,0,0,1,.71-1.88c2.08-4.73,6-7,10-6.3l.48.09.63.16.86.31.11.06a3.68,3.68,0,0,1,.35.15,11.36,11.36,0,0,1,2.07,1.26c.28.21.55.44.82.68A39.21,39.21,0,0,1,130,58a77.9,77.9,0,0,1,7.85,15.51,2,2,0,0,0,.37.64.63.63,0,0,0,.12.11A.26.26,0,0,0,138.47,74.33Z"/></g></g></svg>