<svg xmlns="http://www.w3.org/2000/svg" viewBox="0 0 584 96.53"><defs><style>.cls-1,.cls-3,.cls-5{fill:#09caf5;}.cls-2,.cls-4{fill:#fff;}.cls-3,.cls-5{font-size:42.72px;}.cls-3,.cls-4{font-family:LEMONMILK-Bold, LEMON MILK;font-weight:700;}.cls-3{letter-spacing:0.17em;}.cls-4{font-size:80.76px;}.cls-5{font-family:NexaBold, Nexa Bold;}.cls-6{letter-spacing:0.01em;}.cls-7{letter-spacing:0.02em;}</style></defs><g id="Layer_2" data-name="Layer 2"><g id="Layer_1-2" data-name="Layer 1"><path class="cls-1" d="M148.85,77.18l0,0a3.13,3.13,0,0,0,.83-.34,2.46,2.46,0,0,0,.4-.3,1.62,1.62,0,0,0,.32-.38l.12-.19a2.66,2.66,0,0,0,0-2.1,5.24,5.24,0,0,0-.45-.93c-2.48-4.16-5-8.27-7.6-12.37-4.35-6.9-8.81-13.73-13.57-20.35-2.23-3.09-4.29-6.31-6.71-9.25-.83-1-1.69-2-2.61-2.9-.3-.31-.61-.61-.92-.91l0,0c-.24-.23-.48-.44-.72-.66-.47-.43-1-.85-1.47-1.26-.24-.2-.5-.4-.76-.6s-.68-.52-1-.76a33.35,33.35,0,0,0-4.42-2.65l-1.17-.54c-.6-.27-1.22-.51-1.83-.72s-1.23-.44-1.86-.62A22.4,22.4,0,0,0,93.74,19c-4.15,1.07-7.42,3.14-8.07,7.79-.09.65-.17,1.33-.21,2a13.07,13.07,0,0,0,.1,2.87c.74,4.63,1.67,9.25,2.59,13.85a62.29,62.29,0,0,1,1.55,9.85,24.5,24.5,0,0,1-.06,3,8.94,8.94,0,0,1-4,6.94A22,22,0,0,1,73,69.09,38.21,38.21,0,0,1,63.48,68h0c-.78-.2-1.55-.42-2.31-.67-.51-.16-1-.34-1.5-.53s-1.12-.44-1.67-.69a35,35,0,0,1-7.06-4.21c-.7-.54-1.38-1.11-2.05-1.69l-.75-.68c-.42-.4-.85-.81-1.27-1.23a48,48,0,0,1-3.61-4.1c-.57-.73-1.1-1.49-1.72-2.17a10.88,10.88,0,0,0-1.28-1.2,7.93,7.93,0,0,0-1.54-1,6.36,6.36,0,0,0-.85-.32c-2.06-.58-4.14.13-6.14,2.24A33.49,33.49,0,0,0,27,58.37,80.75,80.75,0,0,0,20.2,75.21c-.16.51-.31,1-.46,1.54l-.06.17-.14.4H5.46c-2.13,0-4.06-.52-5-2.68S.23,70.74,1.6,69C7,62.38,12.41,55.78,19,50.32a71,71,0,0,1,8.69-6,15.93,15.93,0,0,1,5.08-1.74c4.44-.87,8.05.67,10.76,4.27.92,1.23,1.73,2.55,2.65,3.79a13.11,13.11,0,0,0,1.93,2.14c1.75,1.45,3.59,1.58,5.28.08a17.3,17.3,0,0,0,3.73-4.38c2.44-4.48,4.62-9.09,6.88-13.67,3-6.1,5.9-12.28,9-18.32a32.26,32.26,0,0,1,6.77-8.9C84.81,3,90.59,1.7,96.9,4.2a39.3,39.3,0,0,1,8.8,5c7.17,5.31,12.88,12.1,18.35,19.08,10.33,13.19,19.26,27.32,27.84,41.68C153.91,73.31,152.39,76.55,148.85,77.18Z"/><path class="cls-2" d="M138.47,77.28H108.24c-.09-.61-.17-1.28-.26-1.88-.27-2-.56-3.89-.73-5.81,0-.64-.1-1.27-.13-1.91,0-.23,0-.46,0-.69,0-.59,0-1.19,0-1.78q0-.59.06-1.17c0-.27,0-.54.08-.8s.06-.51.1-.76,0-.28.06-.42.09-.49.13-.73l0-.09c0-.21.08-.42.14-.63s.07-.28.11-.42.13-.52.22-.78a19.34,19.34,0,0,1,.71-1.87c2.08-4.73,6-7,10-6.3a4,4,0,0,1,.48.09c.21,0,.42.1.63.16s.57.2.86.31l.11.06a3.68,3.68,0,0,1,.35.15,11.36,11.36,0,0,1,2.07,1.26c.28.21.55.44.82.68A39.21,39.21,0,0,1,130,61a77.64,77.64,0,0,1,7.85,15.51,2,2,0,0,0,.37.64.63.63,0,0,0,.12.11A.26.26,0,0,0,138.47,77.28Z"/><text class="cls-3" transform="translate(175.71 40.14)">HIDDEN</text><text class="cls-4" transform="translate(395.03 72.16)">VPN</text><text class="cls-5" transform="translate(175.71 74.99)">S<tspan class="cls-6" x="28.24" y="0">A</tspan><tspan x="60.71" y="0">N</tspan><tspan class="cls-7" x="91.17" y="0">CT</tspan><tspan x="147.44" y="0">UM</tspan></text></g></g></svg>