<svg xmlns="http://www.w3.org/2000/svg" viewBox="0 0 630.63 113.87"><defs><style>.cls-1{fill:#312f30;}.cls-2{fill:#efefef;}.cls-3{fill:#09caf5;}</style></defs><g id="Layer_2" data-name="Layer 2"><g id="Layer_1-2" data-name="Layer 1"><rect class="cls-1" width="113.87" height="113.87" rx="16.97"/><path class="cls-2" d="M95.2,79.82H76.56c-.06-.37-.11-.79-.16-1.16-.17-1.22-.35-2.4-.45-3.58,0-.39-.07-.78-.08-1.18,0-.14,0-.28,0-.42,0-.37,0-.73,0-1.1a12.63,12.63,0,0,1,1-4.73c1.28-2.91,3.68-4.3,6.17-3.88l.29.06.39.1.53.19.07,0,.22.1A7.18,7.18,0,0,1,85.8,65l.51.42A24.47,24.47,0,0,1,90,69.76a48,48,0,0,1,4.84,9.56,1,1,0,0,0,.23.39.46.46,0,0,0,.07.07S95.18,79.81,95.2,79.82Z"/><path class="cls-3" d="M101.58,79.76l0,0a1.88,1.88,0,0,0,.5-.21l.25-.18a1.11,1.11,0,0,0,.2-.24l.07-.11a1.62,1.62,0,0,0,0-1.3,3.73,3.73,0,0,0-.28-.57c-1.53-2.56-3.1-5.1-4.68-7.62C95,65.25,92.24,61,89.3,57c-1.37-1.91-2.64-3.89-4.13-5.7a22.82,22.82,0,0,0-1.61-1.79c-.18-.19-.38-.38-.57-.56,0,0,0,0,0,0a19.09,19.09,0,0,0-1.81-1.56c-.21-.16-.42-.32-.64-.46a20.24,20.24,0,0,0-2.72-1.64l-.72-.33c-.37-.16-.75-.31-1.13-.45s-.76-.27-1.15-.38a13.89,13.89,0,0,0-7.18-.21c-2.56.66-4.57,1.94-5,4.81a12.18,12.18,0,0,0-.13,1.23,7.94,7.94,0,0,0,.06,1.76c.46,2.86,1,5.7,1.6,8.54a39.28,39.28,0,0,1,.95,6.07,15.85,15.85,0,0,1,0,1.82,5.53,5.53,0,0,1-2.46,4.28,13.62,13.62,0,0,1-7.82,2.38A23.5,23.5,0,0,1,49,74.11h0c-.48-.12-1-.25-1.42-.41l-.93-.32-1-.43a21.68,21.68,0,0,1-4.35-2.6c-.43-.33-.84-.68-1.26-1l-.46-.41-.79-.77A30.25,30.25,0,0,1,36.5,65.6c-.35-.45-.68-.92-1.06-1.34a6.75,6.75,0,0,0-.79-.74,4.69,4.69,0,0,0-.95-.6,3.7,3.7,0,0,0-.52-.2c-1.27-.36-2.55.08-3.79,1.38a21.47,21.47,0,0,0-2.93,4.07A49.6,49.6,0,0,0,22.3,78.55c-.1.31-.19.63-.28.94l0,.11-.09.25H13.22c-1.31,0-2.5-.32-3.1-1.65a3.12,3.12,0,0,1,.72-3.45A77.18,77.18,0,0,1,21.58,63.21a43.65,43.65,0,0,1,5.35-3.67,9.92,9.92,0,0,1,3.13-1.07,6.28,6.28,0,0,1,6.63,2.63c.57.76,1.07,1.57,1.63,2.33a7.52,7.52,0,0,0,1.19,1.32,2.27,2.27,0,0,0,3.25,0,10.42,10.42,0,0,0,2.31-2.7c1.5-2.75,2.85-5.6,4.23-8.42,1.86-3.76,3.64-7.57,5.57-11.29A20.06,20.06,0,0,1,59,36.9a9.45,9.45,0,0,1,10.53-2.11A24.33,24.33,0,0,1,75,37.84c4.42,3.27,7.94,7.46,11.31,11.75a245.26,245.26,0,0,1,17.15,25.69C104.7,77.38,103.76,79.37,101.58,79.76Z"/><path class="cls-3" d="M168.63,14.14V55.9H157.57V40.18H145.16V55.9H134.07V14.14h11.09V29.81h12.41V14.14Z"/><path class="cls-3" d="M185,14.14h11.09V55.9H185Z"/><path class="cls-3" d="M248.88,35.07c0,13-8.68,20.83-22.88,20.83H212.38V14.17l13.62,0C240.2,14.09,248.88,22,248.88,35.07Zm-11.12,0c0-6.56-4.55-10.55-12-10.55h-2.54v21h2.64C233.23,45.46,237.76,41.52,237.76,35.05Z"/><path class="cls-3" d="M299.9,35.07c0,13-8.68,20.83-22.88,20.83H263.4V14.17l13.62,0C291.22,14.09,299.9,22,299.9,35.07Zm-11.12,0c0-6.56-4.56-10.55-12-10.55H274.2v21h2.64C284.25,45.46,288.78,41.52,288.78,35.05Z"/><path class="cls-3" d="M325.37,24.45v5.83h13.27v9.25H325.37v6h16.11V55.9H314.42V14.14h27.06V24.45Z"/><path class="cls-3" d="M392.81,14.09V56.31h-3.52l-21.48-20.8V55.93H356.73V13.73h3.57l21.4,20.72V14.09Z"/><path class="cls-1" d="M486,16.74,449.58,96.51h-9.5L403.85,16.74h22.67l18.21,42.75L463,16.74Z"/><path class="cls-1" d="M493.86,16.74h29.82c16.25,0,29.82,12.24,29.82,27.67,0,15.23-13.27,28-29.82,28h-8.87V95.67H493.86ZM533.27,44.5c0-4.79-4-8.42-9.59-8.42h-8.87v17l8.87,0C529.31,53.17,533.27,49.35,533.27,44.5Z"/><path class="cls-1" d="M630.63,16.64V96.46H624L583.38,57.14V95.72h-21V16h6.76l40.44,39.17V16.64Z"/><path class="cls-3" d="M156,71c-1.28-2.12-4.78-4.14-8.81-4.14-5.2,0-7.69,2.17-7.69,4.93,0,3.24,3.82,4.14,8.27,4.67,7.75,1,15,3,15,11.84,0,8.27-7.33,11.83-15.6,11.83-7.59,0-13.43-2.34-16.19-9.13l5.84-3c1.65,4.08,5.94,5.89,10.45,5.89s8.55-1.54,8.55-5.57c0-3.51-3.67-4.94-8.6-5.47-7.59-.9-14.59-2.92-14.59-11.25,0-7.64,7.53-10.77,14.38-10.82,5.78,0,11.78,1.64,14.59,7.37Z"/><path class="cls-3" d="M194.49,92.18H175.07l-3.18,7H164.3L181,62h7.64l16.66,37.14h-7.64Zm-9.71-22.34-6.9,15.81h13.8Z"/><path class="cls-3" d="M232.85,62h7V99.18H235.5v.06L216,74.14v25h-7V62h5.68l18.2,23Z"/><path class="cls-3" d="M279,94.51A19.56,19.56,0,0,1,264.9,100c-13.8,0-19.63-9.5-19.69-19.15S251.47,61.3,264.9,61.3A19.14,19.14,0,0,1,278.53,67l-4.66,4.51a12.77,12.77,0,0,0-9-3.51c-9,0-12.84,6.69-12.79,12.9s3.61,12.57,12.79,12.57a13.68,13.68,0,0,0,9.34-3.76Z"/><path class="cls-3" d="M292,68.41H280.23V62h30.56v6.37H299V99.18h-7Z"/><path class="cls-3" d="M348.73,62.09V83.37c0,11-6.74,16.61-16.08,16.61-8.91,0-16.5-5.41-16.5-16.61V62.09h7V83.37c0,6.69,3.82,10.24,9.61,10.24s9.07-3.87,9.07-10.24V62.09Z"/><path class="cls-3" d="M387.94,72.28l-12.1,16.13h-1.37L362.63,72.23v27h-7V62.09h8.06l11.62,16,11.62-16h8V99.24h-7Z"/></g></g></svg>