<?xml version="1.0" encoding="utf-8"?>
<!-- Generator: Adobe Illustrator 26.0.2, SVG Export Plug-In . SVG Version: 6.00 Build 0)  -->
<svg version="1.1" id="Layer_1" xmlns="http://www.w3.org/2000/svg" xmlns:xlink="http://www.w3.org/1999/xlink" x="0px" y="0px"
	 viewBox="0 0 851.3 142.3" style="enable-background:new 0 0 851.3 142.3;" xml:space="preserve">
<style type="text/css">
	.st0{fill:#FFFFFF;}
	.st1{enable-background:new    ;}
</style>
<g id="Layer_2_00000065033551854271671550000006646222735188450456_">
	<g id="Layer_1-2">
		<g>
			<path class="st0" d="M219.4,113.8L219.4,113.8c0.4-0.1,0.8-0.3,1.2-0.5c0.2-0.1,0.4-0.3,0.6-0.4c0.2-0.2,0.3-0.4,0.5-0.6
				c0.1-0.1,0.1-0.2,0.2-0.3c0.4-1,0.4-2.1,0-3.1c-0.2-0.5-0.4-0.9-0.7-1.4c-3.7-6.1-7.4-12.2-11.2-18.2c-6.4-10.2-13-20.2-20-30
				c-3.3-4.6-6.3-9.3-9.9-13.6c-1.2-1.5-2.5-2.9-3.9-4.3c-0.4-0.5-0.9-0.9-1.4-1.3l0,0c-0.3-0.3-0.7-0.7-1.1-1
				c-0.7-0.6-1.4-1.2-2.2-1.8c-0.4-0.3-0.7-0.6-1.1-0.9s-1-0.8-1.5-1.1c-2.1-1.5-4.2-2.8-6.5-3.9c-0.6-0.3-1.1-0.5-1.7-0.8
				c-0.9-0.4-1.8-0.8-2.7-1.1s-1.8-0.6-2.8-0.9c-5.6-1.7-11.5-1.9-17.2-0.5c-6.1,1.6-10.9,4.6-11.9,11.5c-0.1,1-0.3,2-0.3,2.9
				c-0.1,1.4-0.1,2.8,0.1,4.2c1.1,6.8,2.5,13.6,3.8,20.4c1,4.8,2.1,9.6,2.3,14.5c0.1,1.5,0,2.9-0.1,4.4c-0.2,4.2-2.4,7.9-5.9,10.2
				c-5.5,3.8-12,5.8-18.7,5.7c-4.7,0.1-9.4-0.5-14-1.6l0,0c-1.2-0.3-2.3-0.6-3.4-1c-0.7-0.2-1.5-0.5-2.2-0.8s-1.7-0.7-2.5-1
				c-3.7-1.7-7.2-3.7-10.4-6.2c-1-0.8-2-1.6-3-2.5l-1.1-1c-0.6-0.6-1.3-1.2-1.9-1.8c-1.9-1.9-3.7-3.9-5.3-6
				c-0.8-1.1-1.6-2.2-2.5-3.2c-0.6-0.6-1.2-1.2-1.9-1.8c-0.7-0.6-1.5-1.1-2.3-1.4c-0.4-0.2-0.8-0.4-1.3-0.6c-3-0.9-6.1,0.2-9,3.3
				c-2.7,2.9-5.1,6.2-7,9.7c-4.4,7.8-7.4,16.2-10,24.8c-0.2,0.8-0.5,1.5-0.7,2.3l-0.1,0.2l-0.2,0.6H8.1c-3.1-0.1-6-0.8-7.4-4
				s-0.3-5.7,1.7-8.2c7.9-9.8,15.9-19.6,25.7-27.6c4-3.2,8.3-6.2,12.8-8.8c2.3-1.3,4.9-2.1,7.5-2.6c6.5-1.3,11.9,1,15.9,6.3
				c1.4,1.8,2.6,3.8,3.9,5.6c0.8,1.2,1.8,2.3,2.9,3.2c2.6,2.1,5.3,2.3,7.8,0.1c2.2-1.8,4.1-4,5.5-6.5c3.6-6.6,6.8-13.4,10.1-20.1
				c4.4-9,8.7-18.1,13.3-27c2.5-4.9,5.9-9.4,10-13.1c7.4-6.8,15.9-8.8,25.2-5.1c4.6,1.9,9,4.3,13,7.3c10.6,7.8,19,17.8,27,28.1
				c15.2,19.4,28.4,40.3,41.1,61.4C226.9,108.1,224.7,112.8,219.4,113.8z"/>
		</g>
		<g>
			<path class="st0" d="M204.1,113.9h-44.6c-0.1-0.9-0.2-1.9-0.4-2.8c-0.4-2.9-0.8-5.7-1.1-8.6c-0.1-0.9-0.1-1.9-0.2-2.8
				c0-0.3,0-0.7,0-1c0-0.9,0-1.8,0-2.6c0-0.6,0.1-1.1,0.1-1.7c0-0.4,0.1-0.8,0.1-1.2s0.1-0.7,0.1-1.1c0-0.2,0.1-0.4,0.1-0.6
				c0.1-0.4,0.1-0.7,0.2-1.1c0,0,0-0.1,0-0.1c0.1-0.3,0.1-0.6,0.2-0.9s0.1-0.4,0.2-0.6c0.1-0.4,0.2-0.8,0.3-1.1
				c0.3-0.9,0.6-1.9,1-2.8c3.1-7,8.8-10.3,14.8-9.3c0.2,0,0.5,0.1,0.7,0.1c0.3,0.1,0.6,0.2,0.9,0.2c0.4,0.1,0.9,0.3,1.3,0.5l0.2,0.1
				c0.2,0.1,0.3,0.1,0.5,0.2c1.1,0.5,2.1,1.1,3.1,1.9c0.4,0.3,0.8,0.6,1.2,1c3.3,3.1,6.3,6.6,8.8,10.3c4.9,7,8.4,14.9,11.6,22.9
				c0.1,0.4,0.3,0.7,0.6,1l0.2,0.2C204,113.9,204.1,113.9,204.1,113.9z"/>
		</g>
		<g class="st1">
			<path class="st0" d="M294.7,9.6v49.6h-13.1V40.5h-14.7v18.7h-13.2V9.6h13.2v18.6h14.7V9.6H294.7z"/>
			<path class="st0" d="M314,9.6h13.2v49.6H314V9.6z"/>
			<path class="st0" d="M389.9,34.4c0,15.4-10.3,24.7-27.2,24.7h-16.2V9.6l16.2,0C379.5,9.5,389.9,18.9,389.9,34.4z M376.7,34.4
				c0-7.8-5.4-12.5-14.3-12.5h-3v24.9h3.1C371.3,46.8,376.7,42.1,376.7,34.4z"/>
			<path class="st0" d="M450.4,34.4c0,15.4-10.3,24.7-27.2,24.7H407V9.6l16.2,0C440.1,9.5,450.4,18.9,450.4,34.4z M437.2,34.4
				c0-7.8-5.4-12.5-14.3-12.5h-3v24.9h3.1C431.8,46.8,437.2,42.1,437.2,34.4z"/>
			<path class="st0" d="M480.5,21.8v6.9h15.8v11h-15.8v7.1h19.1v12.3h-32.1V9.6h32.1v12.2H480.5z"/>
			<path class="st0" d="M560.5,9.5v50.1h-4.2L530.9,35v24.2h-13.2V9.1h4.2l25.4,24.6V9.5H560.5z"/>
		</g>
		<g class="st1">
			<path class="st0" d="M671.4,12.7l-43.2,94.7H617l-43-94.7h26.9l21.6,50.8l21.7-50.8H671.4z"/>
			<path class="st0" d="M680.8,12.7h35.4c19.3,0,35.4,14.5,35.4,32.8c0,18.1-15.8,33.3-35.4,33.3h-10.5v27.6h-24.9V12.7z
				 M727.6,45.6c0-5.7-4.8-10-11.4-10h-10.5v20.2l10.5,0.1C722.9,55.9,727.6,51.4,727.6,45.6z"/>
			<path class="st0" d="M843.2,12.6v94.8h-7.9l-48.2-46.7v45.8h-24.9V11.7h8l48,46.5V12.6H843.2z"/>
		</g>
		<g class="st1">
			<path class="st0" d="M279.7,77.1c-1.5-2.5-5.7-4.9-10.5-4.9c-6.2,0-9.1,2.6-9.1,5.9c0,3.8,4.5,4.9,9.8,5.5
				c9.2,1.1,17.8,3.5,17.8,14c0,9.8-8.7,14-18.5,14c-9,0-15.9-2.8-19.2-10.8l6.9-3.6c2,4.9,7.1,7,12.4,7c5.2,0,10.1-1.8,10.1-6.6
				c0-4.2-4.3-5.9-10.2-6.5c-9-1.1-17.3-3.5-17.3-13.4c0-9.1,8.9-12.8,17.1-12.8c6.9,0,14,2,17.3,8.8L279.7,77.1z"/>
		</g>
		<g class="st1">
			<path class="st0" d="M325.4,102.2h-23.1l-3.8,8.3h-9l19.8-44.1h9.1l19.8,44.1h-9.1L325.4,102.2z M313.9,75.7l-8.2,18.8h16.4
				L313.9,75.7z"/>
		</g>
		<g class="st1">
			<path class="st0" d="M370.9,66.4h8.3v44.2h-5.2v0.1l-23.2-29.8v29.7h-8.3V66.5h6.7l21.6,27.3V66.4z"/>
		</g>
		<g class="st1">
			<path class="st0" d="M425.7,105c-4.5,4.5-10.4,6.6-16.8,6.6c-16.4,0-23.3-11.3-23.4-22.7c-0.1-11.5,7.4-23.2,23.4-23.2
				c6,0,11.7,2.3,16.2,6.7l-5.5,5.4c-2.9-2.8-6.8-4.2-10.6-4.2c-10.6,0-15.2,7.9-15.2,15.3c0.1,7.3,4.3,14.9,15.2,14.9
				c3.8,0,8.2-1.6,11.1-4.5L425.7,105z"/>
			<path class="st0" d="M442.4,74h-14v-7.6c12.7,0,23.5,0,36.3,0V74h-14v36.5h-8.3V74z"/>
		</g>
		<g class="st1">
			<path class="st0" d="M508.5,66.5v25.3c0,13-8,19.7-19.1,19.7c-10.6,0-19.6-6.4-19.6-19.7V66.5h8.3v25.3c0,7.9,4.5,12.2,11.4,12.2
				c6.9,0,10.8-4.6,10.8-12.2V66.5H508.5z"/>
			<path class="st0" d="M555.1,78.6l-14.4,19.1h-1.6l-14-19.2v32.1h-8.3V66.5h9.6l13.8,19l13.8-19h9.5v44.1h-8.3V78.6z"/>
		</g>
	</g>
</g>
</svg>
