<?xml version="1.0" encoding="utf-8"?>
<!-- Generator: Adobe Illustrator 26.0.2, SVG Export Plug-In . SVG Version: 6.00 Build 0)  -->
<svg version="1.1" id="Layer_1" xmlns="http://www.w3.org/2000/svg" xmlns:xlink="http://www.w3.org/1999/xlink" x="0px" y="0px"
	 viewBox="0 0 408.3 96.5" style="enable-background:new 0 0 408.3 96.5;" xml:space="preserve">
<style type="text/css">
	.st0{enable-background:new    ;}
	.st1{fill:#09CAF5;}
	.st2{fill:#312F30;}
</style>
<g id="Layer_2_00000163040958289179051800000016897346189873557632_">
	<g id="Layer_1-2">
		<g class="st0">
			<path class="st1" d="M30.7,6.5v33.6h-8.9V27.5h-10v12.7H2.9V6.5h8.9v12.6h10V6.5H30.7z"/>
			<path class="st1" d="M43.8,6.5h8.9v33.6h-8.9V6.5z"/>
			<path class="st1" d="M95.3,23.4c0,10.4-7,16.8-18.4,16.8h-11V6.5l11,0C88.3,6.5,95.3,12.9,95.3,23.4z M86.3,23.3
				c0-5.3-3.7-8.5-9.7-8.5h-2v16.9h2.1C82.7,31.7,86.3,28.6,86.3,23.3z"/>
			<path class="st1" d="M136.3,23.4c0,10.4-7,16.8-18.4,16.8h-11V6.5l11,0C129.3,6.5,136.3,12.9,136.3,23.4z M127.4,23.3
				c0-5.3-3.7-8.5-9.7-8.5h-2v16.9h2.1C123.7,31.7,127.4,28.6,127.4,23.3z"/>
			<path class="st1" d="M156.8,14.8v4.7h10.7V27h-10.7v4.8h13v8.4h-21.8V6.5h21.8v8.3H156.8z"/>
			<path class="st1" d="M211,6.5v34h-2.8l-17.3-16.8v16.4H182v-34h2.9l17.2,16.7V6.5H211z"/>
		</g>
		<g class="st0">
			<path class="st2" d="M286.3,8.6L257,72.8h-7.6L220.1,8.6h18.3L253.1,43l14.7-34.4H286.3z"/>
			<path class="st2" d="M292.6,8.6h24c13.1,0,24,9.9,24,22.3c0,12.3-10.7,22.6-24,22.6h-7.1v18.7h-16.9V8.6z M324.4,31
				c0-3.9-3.2-6.8-7.7-6.8h-7.1v13.7l7.1,0C321.2,37.9,324.4,34.9,324.4,31z"/>
			<path class="st2" d="M402.8,8.5v64.3h-5.4l-32.7-31.7v31.1h-16.9V8h5.4l32.6,31.5v-31H402.8z"/>
		</g>
		<g class="st0">
			<path class="st1" d="M20.6,52.3c-1-1.7-3.8-3.3-7.1-3.3c-4.2,0-6.2,1.8-6.2,4c0,2.6,3.1,3.3,6.7,3.8c6.2,0.8,12,2.4,12,9.5
				c0,6.7-5.9,9.5-12.6,9.5c-6.1,0-10.8-1.9-13-7.3L5.1,66c1.3,3.3,4.8,4.7,8.4,4.7c3.5,0,6.9-1.2,6.9-4.5c0-2.8-2.9-4-6.9-4.4
				c-6.1-0.7-11.7-2.3-11.7-9.1c0-6.2,6.1-8.7,11.6-8.7c4.7,0,9.5,1.3,11.7,5.9L20.6,52.3z"/>
		</g>
		<g class="st0">
			<path class="st1" d="M51.6,69.4H35.9L33.4,75h-6.1l13.4-29.9h6.2L60.2,75h-6.2L51.6,69.4z M43.7,51.4l-5.6,12.7h11.1L43.7,51.4z"
				/>
		</g>
		<g class="st0">
			<path class="st1" d="M82.5,45h5.6v30h-3.5v0L68.9,54.8V75h-5.6V45.1h4.6l14.7,18.5V45z"/>
		</g>
		<g class="st0">
			<path class="st1" d="M119.6,71.2c-3.1,3-7,4.4-11.4,4.4c-11.1,0-15.8-7.6-15.9-15.4c0-7.8,5-15.8,15.9-15.8c4.1,0,7.9,1.5,11,4.6
				l-3.8,3.6c-2-1.9-4.6-2.8-7.2-2.8c-7.2,0-10.3,5.4-10.3,10.4c0,5,2.9,10.1,10.3,10.1c2.6,0,5.6-1.1,7.5-3L119.6,71.2z"/>
			<path class="st1" d="M130.9,50.2h-9.5v-5.1c8.6,0,15.9,0,24.6,0v5.1h-9.5V75h-5.6V50.2z"/>
		</g>
		<g class="st0">
			<path class="st1" d="M175.8,45.1v17.1c0,8.8-5.4,13.4-12.9,13.4c-7.2,0-13.3-4.4-13.3-13.4V45.1h5.6v17.1c0,5.4,3.1,8.2,7.7,8.2
				c4.7,0,7.3-3.1,7.3-8.2V45.1H175.8z"/>
			<path class="st1" d="M207.3,53.3l-9.7,13h-1.1l-9.5-13V75h-5.6V45.1h6.5l9.4,12.9l9.4-12.9h6.5V75h-5.6V53.3z"/>
		</g>
	</g>
</g>
</svg>
