<?xml version="1.0" encoding="utf-8"?>
<!-- Generator: Adobe Illustrator 26.0.2, SVG Export Plug-In . SVG Version: 6.00 Build 0)  -->
<svg version="1.1" id="Layer_1" xmlns="http://www.w3.org/2000/svg" xmlns:xlink="http://www.w3.org/1999/xlink" x="0px" y="0px"
	 viewBox="0 0 601.9 142.3" style="enable-background:new 0 0 601.9 142.3;" xml:space="preserve">
<style type="text/css">
	.st0{enable-background:new    ;}
	.st1{fill:#FFFFFF;}
</style>
<g id="Layer_2_00000036242732883215862190000014211818285420853421_">
	<g id="Layer_1-2">
		<g class="st0">
			<path class="st1" d="M45.3,9.6v49.6H32.2V40.5H17.5v18.7H4.3V9.6h13.2v18.6h14.7V9.6H45.3z"/>
			<path class="st1" d="M64.7,9.6h13.2v49.6H64.7V9.6z"/>
			<path class="st1" d="M140.5,34.4c0,15.4-10.3,24.7-27.2,24.7H97.1V9.6l16.2,0C130.2,9.5,140.5,18.9,140.5,34.4z M127.3,34.4
				c0-7.8-5.4-12.5-14.3-12.5h-3v24.9h3.1C121.9,46.8,127.3,42.1,127.3,34.4z"/>
			<path class="st1" d="M201,34.4c0,15.4-10.3,24.7-27.2,24.7h-16.2V9.6l16.2,0C190.7,9.5,201,18.9,201,34.4z M187.8,34.4
				c0-7.8-5.4-12.5-14.3-12.5h-3v24.9h3.1C182.4,46.8,187.8,42.1,187.8,34.4z"/>
			<path class="st1" d="M231.2,21.8v6.9h15.8v11h-15.8v7.1h19.1v12.3h-32.1V9.6h32.1v12.2H231.2z"/>
			<path class="st1" d="M311.2,9.5v50.1H307L281.5,35v24.2h-13.2V9.1h4.2L298,33.7V9.5H311.2z"/>
		</g>
		<g class="st0">
			<path class="st1" d="M422,12.7l-43.2,94.7h-11.3l-43-94.7h26.9l21.6,50.8l21.7-50.8H422z"/>
			<path class="st1" d="M431.4,12.7h35.4c19.3,0,35.4,14.5,35.4,32.8c0,18.1-15.8,33.3-35.4,33.3h-10.5v27.6h-24.9V12.7z
				 M478.2,45.6c0-5.7-4.8-10-11.4-10h-10.5v20.2l10.5,0.1C473.5,55.9,478.2,51.4,478.2,45.6z"/>
			<path class="st1" d="M593.8,12.6v94.8h-7.9l-48.2-46.7v45.8h-24.9V11.7h8l48,46.5V12.6H593.8z"/>
		</g>
		<g class="st0">
			<path class="st1" d="M30.3,77.1c-1.5-2.5-5.7-4.9-10.5-4.9c-6.2,0-9.1,2.6-9.1,5.9c0,3.8,4.5,4.9,9.8,5.5
				c9.2,1.1,17.8,3.5,17.8,14c0,9.8-8.7,14-18.5,14c-9,0-15.9-2.8-19.2-10.8l6.9-3.6c2,4.9,7.1,7,12.4,7c5.2,0,10.1-1.8,10.1-6.6
				c0-4.2-4.3-5.9-10.2-6.5c-9-1.1-17.3-3.5-17.3-13.4c0-9.1,8.9-12.8,17.1-12.8c6.9,0,14,2,17.3,8.8L30.3,77.1z"/>
		</g>
		<g class="st0">
			<path class="st1" d="M76,102.2H53l-3.8,8.3h-9L60,66.5H69l19.8,44.1h-9.1L76,102.2z M64.5,75.7l-8.2,18.8h16.4L64.5,75.7z"/>
		</g>
		<g class="st0">
			<path class="st1" d="M121.6,66.4h8.3v44.2h-5.2v0.1l-23.2-29.8v29.7h-8.3V66.5h6.7l21.6,27.3V66.4z"/>
		</g>
		<g class="st0">
			<path class="st1" d="M176.4,105c-4.5,4.5-10.4,6.6-16.8,6.6c-16.4,0-23.3-11.3-23.4-22.7c-0.1-11.5,7.4-23.2,23.4-23.2
				c6,0,11.7,2.3,16.2,6.7l-5.5,5.4c-2.9-2.8-6.8-4.2-10.6-4.2c-10.6,0-15.2,7.9-15.2,15.3c0.1,7.3,4.3,14.9,15.2,14.9
				c3.8,0,8.2-1.6,11.1-4.5L176.4,105z"/>
			<path class="st1" d="M193,74h-14v-7.6c12.7,0,23.5,0,36.3,0V74h-14v36.5H193V74z"/>
		</g>
		<g class="st0">
			<path class="st1" d="M259.1,66.5v25.3c0,13-8,19.7-19.1,19.7c-10.6,0-19.6-6.4-19.6-19.7V66.5h8.3v25.3c0,7.9,4.5,12.2,11.4,12.2
				s10.8-4.6,10.8-12.2V66.5H259.1z"/>
			<path class="st1" d="M305.7,78.6l-14.4,19.1h-1.6l-14-19.2v32.1h-8.3V66.5h9.6l13.8,19l13.8-19h9.5v44.1h-8.3V78.6z"/>
		</g>
	</g>
</g>
</svg>
