<svg xmlns="http://www.w3.org/2000/svg" viewBox="0 0 113.87 113.87"><defs><style>.cls-1{fill:#fff;}.cls-2{fill:#312f30;}.cls-3{fill:#09caf5;}</style></defs><g id="Layer_2" data-name="Layer 2"><g id="Layer_1-2" data-name="Layer 1"><rect class="cls-1" width="113.87" height="113.87" rx="16.97"/><path class="cls-2" d="M95.2,79.82H76.56c-.06-.37-.11-.79-.16-1.16-.17-1.22-.35-2.4-.45-3.58,0-.39-.07-.78-.08-1.18,0-.14,0-.28,0-.42,0-.37,0-.73,0-1.1a12.63,12.63,0,0,1,1-4.73c1.28-2.91,3.68-4.3,6.17-3.88l.29.06.39.1.53.19.07,0,.22.1A7.18,7.18,0,0,1,85.8,65l.51.42A24.47,24.47,0,0,1,90,69.76a48,48,0,0,1,4.84,9.56,1,1,0,0,0,.23.39.46.46,0,0,0,.07.07S95.18,79.81,95.2,79.82Z"/><path class="cls-3" d="M101.58,79.76l0,0a1.88,1.88,0,0,0,.5-.21l.25-.18a1.11,1.11,0,0,0,.2-.24l.07-.11a1.62,1.62,0,0,0,0-1.3,3.73,3.73,0,0,0-.28-.57c-1.53-2.56-3.1-5.1-4.68-7.62C95,65.25,92.24,61,89.3,57c-1.37-1.91-2.64-3.89-4.13-5.7a22.82,22.82,0,0,0-1.61-1.79c-.18-.19-.38-.38-.57-.56,0,0,0,0,0,0a19.09,19.09,0,0,0-1.81-1.56c-.21-.16-.42-.32-.64-.46a20.24,20.24,0,0,0-2.72-1.64l-.72-.33c-.37-.16-.75-.31-1.13-.45s-.76-.27-1.15-.38a13.89,13.89,0,0,0-7.18-.21c-2.56.66-4.57,1.94-5,4.81a12.18,12.18,0,0,0-.13,1.23,7.94,7.94,0,0,0,.06,1.76c.46,2.86,1,5.7,1.6,8.54a39.28,39.28,0,0,1,.95,6.07,15.85,15.85,0,0,1,0,1.82,5.53,5.53,0,0,1-2.46,4.28,13.62,13.62,0,0,1-7.82,2.38A23.5,23.5,0,0,1,49,74.11h0c-.48-.12-1-.25-1.42-.41l-.93-.32-1-.43a21.68,21.68,0,0,1-4.35-2.6c-.43-.33-.84-.68-1.26-1l-.46-.41-.79-.77A30.25,30.25,0,0,1,36.5,65.6c-.35-.45-.68-.92-1.06-1.34a6.75,6.75,0,0,0-.79-.74,4.69,4.69,0,0,0-.95-.6,3.7,3.7,0,0,0-.52-.2c-1.27-.36-2.55.08-3.79,1.38a21.47,21.47,0,0,0-2.93,4.07A49.6,49.6,0,0,0,22.3,78.55c-.1.31-.19.63-.28.94l0,.11-.09.25H13.22c-1.31,0-2.5-.32-3.1-1.65a3.12,3.12,0,0,1,.72-3.45A77.18,77.18,0,0,1,21.58,63.21a43.65,43.65,0,0,1,5.35-3.67,9.92,9.92,0,0,1,3.13-1.07,6.28,6.28,0,0,1,6.63,2.63c.57.76,1.07,1.57,1.63,2.33a7.52,7.52,0,0,0,1.19,1.32,2.27,2.27,0,0,0,3.25,0,10.42,10.42,0,0,0,2.31-2.7c1.5-2.75,2.85-5.6,4.23-8.42,1.86-3.76,3.64-7.57,5.57-11.29A20.06,20.06,0,0,1,59,36.9a9.45,9.45,0,0,1,10.53-2.11A24.33,24.33,0,0,1,75,37.84c4.42,3.27,7.94,7.46,11.31,11.75a245.26,245.26,0,0,1,17.15,25.69C104.7,77.38,103.76,79.37,101.58,79.76Z"/></g></g></svg>